<svg width="947" height="617" viewBox="0 0 947 617" fill="none" xmlns="http://www.w3.org/2000/svg">
<g id="flowerandme 1" clip-path="url(#clip0_0_1)">
<path id="Vector" d="M403.98 364C438.38 364 466.267 338.077 466.267 306.099C466.267 274.121 438.38 248.198 403.98 248.198C369.58 248.198 341.693 274.121 341.693 306.099C341.693 338.077 369.58 364 403.98 364Z" fill="#FA4343"/>
<path id="Vector_2" d="M403.416 410.81L403.927 305.78" stroke="#3F3D56" stroke-width="2" stroke-miterlimit="10"/>
<path id="Vector_3" d="M403.927 320.633C412.751 320.633 419.904 313.983 419.904 305.78C419.904 297.577 412.751 290.928 403.927 290.928C395.102 290.928 387.949 297.577 387.949 305.78C387.949 313.983 395.102 320.633 403.927 320.633Z" fill="#3F3D56"/>
<path id="leaf3" d="M403.612 370.512C403.612 370.512 401.551 324.867 354.734 329.975Z" fill="#3F3D56"/>
<path id="Vector_4" d="M143.052 247.752C177.453 247.752 205.339 221.829 205.339 189.851C205.339 157.873 177.453 131.95 143.052 131.95C108.652 131.95 80.7656 157.873 80.7656 189.851C80.7656 221.829 108.652 247.752 143.052 247.752Z" fill="#FED546"/>
<path id="Vector_5" d="M139.526 403.608L143.11 189.787" stroke="#3F3D56" stroke-width="2" stroke-miterlimit="10"/>
<path id="Vector_6" d="M143.11 204.64C151.935 204.64 159.088 197.99 159.088 189.787C159.088 181.584 151.935 174.934 143.11 174.934C134.286 174.934 127.133 181.584 127.133 189.787C127.133 197.99 134.286 204.64 143.11 204.64Z" fill="#3F3D56"/>
<path id="leaf" d="M142.096 250.269C142.096 250.269 140.579 204.605 93.7037 209.231Z" fill="#3F3D56"/>
<path id="Vector_7" d="M139.594 399.525C139.594 399.525 151.335 311.926 92.0675 306.823" stroke="#3F3D56" stroke-width="2" stroke-miterlimit="10"/>
<path id="Vector_8" d="M92.0675 321.676C100.892 321.676 108.045 315.026 108.045 306.823C108.045 298.62 100.892 291.971 92.0675 291.971C83.2432 291.971 76.0897 298.62 76.0897 306.823C76.0897 315.026 83.2432 321.676 92.0675 321.676Z" fill="#3F3D56"/>
<path id="Vector_9" d="M277 119.209C311.4 119.209 339.287 93.2855 339.287 61.3075C339.287 29.3296 311.4 3.4063 277 3.4063C242.6 3.4063 214.713 29.3296 214.713 61.3075C214.713 93.2855 242.6 119.209 277 119.209Z" fill="#FF7715"/>
<path id="Vector_10" d="M277.039 411.853V61.5202" stroke="#3F3D56" stroke-width="2" stroke-miterlimit="10"/>
<path id="Vector_11" d="M277.039 76.2071C285.863 76.2071 293.017 69.5572 293.017 61.3543C293.017 53.1513 285.863 46.5014 277.039 46.5014C268.215 46.5014 261.061 53.1513 261.061 61.3543C261.061 69.5572 268.215 76.2071 277.039 76.2071Z" fill="#3F3D56"/>
<path id="Vector_12" d="M227.964 329.675C236.788 329.675 243.942 323.025 243.942 314.822C243.942 306.619 236.788 299.969 227.964 299.969C219.14 299.969 211.986 306.619 211.986 314.822C211.986 323.025 219.14 329.675 227.964 329.675Z" fill="#3F3D56"/>
<g id="leaf1">
<path id="Vector_13" d="M277.039 137.223C277.039 137.223 274.756 91.5871 227.964 96.8917Z" fill="#3F3D56"/>
</g>
<path id="leaf2" d="M277.039 266.596C277.039 266.596 274.756 220.96 227.964 226.265Z" fill="#3F3D56"/>
<g id="swingpart">
<path id="Vector_14" d="M475 404.675C475 404.675 520.209 453.27 578.604 395.194Z" fill="#3F3D56"/>
</g>
<path id="Vector_15" d="M277.039 407.77C277.039 407.77 287.31 319.065 227.964 314.822" stroke="#3F3D56" stroke-width="2" stroke-miterlimit="10"/>
<path id="Vector_16" d="M327.094 190.35C335.918 190.35 343.072 183.7 343.072 175.497C343.072 167.294 335.918 160.644 327.094 160.644C318.27 160.644 311.116 167.294 311.116 175.497C311.116 183.7 318.27 190.35 327.094 190.35Z" fill="#3F3D56"/>
<path id="Vector_17" d="M278.019 263.714C278.019 263.714 267.748 179.741 327.094 175.497" stroke="#3F3D56" stroke-width="2" stroke-miterlimit="10"/>
<g id="circle" filter="url(#filter0_f_0_1)">
<path d="M410.253 141.948C405.823 141.948 401.493 140.727 397.81 138.439C394.127 136.152 391.256 132.9 389.561 129.096C387.866 125.292 387.423 121.106 388.287 117.067C389.151 113.029 391.284 109.319 394.416 106.408C397.548 103.496 401.539 101.513 405.883 100.71C410.228 99.9065 414.731 100.319 418.823 101.895C422.915 103.47 426.413 106.139 428.874 109.562C431.335 112.986 432.648 117.011 432.648 121.129C432.642 126.648 430.28 131.94 426.081 135.843C421.883 139.746 416.19 141.942 410.253 141.948ZM410.253 102.202C406.226 102.202 402.289 103.312 398.941 105.392C395.593 107.472 392.983 110.428 391.442 113.886C389.901 117.344 389.498 121.15 390.284 124.821C391.069 128.493 393.009 131.865 395.856 134.512C398.703 137.159 402.331 138.961 406.281 139.692C410.23 140.422 414.324 140.047 418.044 138.615C421.764 137.182 424.944 134.756 427.181 131.644C429.418 128.531 430.612 124.872 430.612 121.129C430.606 116.111 428.459 111.3 424.642 107.752C420.825 104.204 415.65 102.208 410.253 102.202Z" fill="#3F3D56"/>
</g>
<g id="circle_2" filter="url(#filter1_f_0_1)">
<path d="M58.0258 41.638C53.5963 41.638 49.2663 40.417 45.5833 38.1294C41.9003 35.8418 39.0298 32.5903 37.3347 28.7861C35.6396 24.9819 35.1961 20.7959 36.0602 16.7574C36.9244 12.7189 39.0574 9.00935 42.1895 6.09776C45.3216 3.18617 49.3122 1.20335 53.6566 0.40004C58.001 -0.403266 62.504 0.00902322 66.5964 1.58477C70.6887 3.16051 74.1865 5.82893 76.6473 9.2526C79.1082 12.6763 80.4217 16.7014 80.4217 20.819C80.415 26.3387 78.0533 31.6304 73.8547 35.5334C69.6561 39.4364 63.9635 41.6318 58.0258 41.638ZM58.0258 1.89265C53.999 1.89265 50.0626 3.00266 46.7145 5.08232C43.3663 7.16197 40.7567 10.1179 39.2157 13.5762C37.6747 17.0346 37.2715 20.84 38.0571 24.5114C38.8427 28.1827 40.7818 31.5551 43.6292 34.202C46.4766 36.8489 50.1044 38.6515 54.0538 39.3817C58.0032 40.112 62.0969 39.7372 65.8172 38.3047C69.5375 36.8722 72.7173 34.4464 74.9545 31.334C77.1917 28.2215 78.3858 24.5623 78.3858 20.819C78.3796 15.8012 76.2325 10.9905 72.4156 7.4424C68.5988 3.89425 63.4237 1.89839 58.0258 1.89265Z" fill="#3F3D56"/>
</g>
<g id="Vector_18" filter="url(#filter2_d_0_1)">
<path d="M277.913 583.879C386.984 583.879 475.404 501.685 475.404 400.293H80.4217C80.4217 501.685 168.842 583.879 277.913 583.879Z" fill="#182B13"/>
<path d="M474.904 400.793C474.613 501.645 386.564 583.379 277.913 583.379C169.262 583.379 81.2126 501.645 80.9224 400.793H474.904Z" stroke="black"/>
</g>
<path id="Vector_19" d="M466.234 416.604C473.543 416.604 479.468 411.096 479.468 404.302C479.468 397.508 473.543 392 466.234 392C458.925 392 453 397.508 453 404.302C453 411.096 458.925 416.604 466.234 416.604Z" fill="#3F3D56"/>
<g id="swing">
<g id="Vector_20" filter="url(#filter3_d_0_1)">
<path d="M838.602 472.693C935.931 426.928 974.92 316.483 925.689 226.007L573.232 391.738C622.463 482.214 741.274 518.458 838.602 472.693Z" fill="#64347B"/>
<path d="M573.925 391.965L925.474 226.66C974.214 316.786 935.329 426.658 838.389 472.24C741.451 517.823 623.175 481.85 573.925 391.965Z" stroke="black"/>
</g>
<path id="Vector_21" d="M845.741 131.021C846.397 130.607 847.031 130.165 847.647 129.703C846.363 133.277 844.293 136.565 841.569 139.355C840.931 140.008 840.251 140.619 839.552 141.209C839.538 141.06 839.523 140.91 839.514 140.761C839.433 139.313 839.547 137.789 839.568 136.298C841.995 134.954 844.097 133.157 845.741 131.021Z" fill="url(#paint0_linear_0_1)"/>
<path id="Vector_22" d="M579.234 406.87C586.543 406.87 592.468 401.362 592.468 394.568C592.468 387.774 586.543 382.266 579.234 382.266C571.925 382.266 566 387.774 566 394.568C566 401.362 571.925 406.87 579.234 406.87Z" fill="#3F3D56"/>
<path id="Vector_23" d="M855.292 78.2238C856.774 75.9026 857.628 73.2822 857.782 70.587C857.936 67.8918 857.385 65.2021 856.176 62.7481C854.967 60.2942 853.137 58.1491 850.841 56.4966C848.545 54.844 845.853 53.7333 842.995 53.2594C840.136 52.7856 837.197 52.9627 834.429 53.7757C831.66 54.5887 829.145 56.0133 827.098 57.9275C825.051 59.8417 823.534 62.1886 822.676 64.7671C821.818 67.3456 821.645 70.0789 822.172 72.7331C817.035 75.0073 812.736 78.6428 809.816 83.1824C806.897 87.722 805.486 92.9629 805.762 98.2458C803.308 101.748 801.767 105.734 801.263 109.887C800.758 114.04 801.303 118.245 802.855 122.168C804.407 126.09 806.922 129.622 810.201 132.482C813.48 135.341 817.431 137.45 821.741 138.64C826.051 139.83 830.6 140.067 835.027 139.335C839.453 138.602 843.634 136.919 847.238 134.419C850.841 131.92 853.767 128.673 855.782 124.937C857.797 121.201 858.847 117.079 858.847 112.899C858.847 112.471 858.833 112.046 858.812 111.623C862.394 106.512 863.998 100.42 863.358 94.3492C862.718 88.2784 859.873 82.5911 855.292 78.2238Z" fill="#2F2E41"/>
<path id="Vector_24" d="M821.934 68.4935C822.014 68.4569 822.091 68.4148 822.171 68.3789C822.114 68.0897 822.075 67.7957 822.034 67.5022C822.025 67.5636 822.013 67.6237 822.005 67.6853C821.97 67.956 821.954 68.2244 821.934 68.4935Z" fill="black"/>
<path id="Vector_25" d="M863.287 95.8288C862.762 99.9113 861.23 103.826 858.812 107.269C858.833 107.692 858.847 108.117 858.847 108.545C858.848 115.479 855.963 122.144 850.797 127.145C845.63 132.146 838.583 135.095 831.131 135.375C823.678 135.654 816.398 133.243 810.815 128.645C805.232 124.048 801.778 117.62 801.178 110.709C801.115 111.432 801.077 112.161 801.077 112.899C801.077 120.021 804.12 126.851 809.537 131.886C814.954 136.922 822.301 139.751 829.962 139.751C837.622 139.751 844.969 136.922 850.386 131.886C855.803 126.851 858.847 120.021 858.847 112.899C858.847 112.471 858.833 112.046 858.812 111.623C862.314 106.634 863.926 100.701 863.392 94.7642C863.361 95.1186 863.334 95.4726 863.287 95.8288Z" fill="black"/>
<path id="Vector_26" d="M738.893 366.306C739.031 367.834 739.476 369.324 740.206 370.699C740.578 371.383 741.119 371.976 741.784 372.429C742.45 372.882 743.221 373.183 744.035 373.305C745.533 373.314 747 372.919 748.26 372.167C750.832 370.918 753.501 369.467 754.843 367.076C756.143 364.761 755.956 361.999 755.736 359.396L754.009 338.921C749.849 338.814 745.67 338.816 741.513 339.027C737.396 339.235 736.673 340.136 737.246 343.873C738.387 351.309 737.832 358.863 738.893 366.306Z" fill="#FBBEBE"/>
<path id="Vector_27" d="M860.943 380.144L870.842 395.011C871.268 395.875 872.04 396.551 872.995 396.892C873.705 396.988 874.43 396.871 875.063 396.558C878.365 395.217 880.892 392.67 883.316 390.193C884.961 388.512 886.661 386.74 887.279 384.541C887.598 383.349 887.584 382.1 887.238 380.914C886.892 379.728 886.225 378.644 885.301 377.766C884.145 376.83 882.896 376 881.569 375.286C873.744 370.38 870.213 361.059 862.488 356.017C862.042 355.673 861.499 355.456 860.923 355.392C860.349 355.423 859.794 355.596 859.316 355.893C855.796 357.686 852.276 359.48 848.756 361.274C844.183 363.599 845.632 363.872 849.105 366.377C854.221 370.067 857.416 375.225 860.943 380.144Z" fill="#FBBEBE"/>
<path id="Vector_28" d="M760.38 354.464C758.93 354.04 757.305 353.657 755.938 354.275C755.299 354.639 754.758 355.133 754.356 355.722C753.955 356.31 753.704 356.976 753.623 357.668C753.348 359.034 753.381 360.452 752.973 361.79C752.285 364.045 750.437 365.806 748.655 367.465C747.936 368.264 747 368.869 745.944 369.219C744.517 369.559 742.999 368.938 741.548 369.174C740.702 369.375 739.932 369.788 739.321 370.367C738.709 370.947 738.28 371.67 738.079 372.46C737.702 374.043 737.644 375.678 737.91 377.282L739.033 388.693C739.231 390.084 739.247 391.492 739.079 392.886C738.665 395.395 737.096 397.597 736.226 400.002C735.356 402.408 735.404 405.479 737.582 407.01C738.343 407.481 739.219 407.767 740.129 407.841C741.04 407.916 741.956 407.777 742.793 407.436C744.461 406.737 745.936 405.695 747.109 404.39C753.776 397.631 756.753 388.477 761.938 380.676C763.262 378.872 764.446 376.983 765.482 375.023C766.194 373.507 766.646 371.9 767.222 370.335C768.017 368.245 768.971 366.21 770.077 364.246C770.694 363.122 773.055 360.416 772.559 359.161C771.713 357.02 762.625 355.122 760.38 354.464Z" fill="#2F2E41"/>
<path id="Vector_29" d="M880.596 385.941C879.096 388.556 876.593 390.551 873.583 391.528C872.709 391.748 871.896 392.139 871.199 392.675C870.741 393.195 870.457 393.828 870.383 394.496C870.309 395.164 870.448 395.838 870.782 396.434C871.471 397.613 872.367 398.677 873.434 399.581C879.419 405.469 883.377 412.883 884.801 420.875C885.155 422.892 885.387 425.035 886.685 426.684C889.221 429.904 894.619 429.694 898.431 427.858C899.596 427.362 900.606 426.6 901.369 425.644C902.004 424.606 902.408 423.461 902.557 422.275C903.245 419.338 903.625 416.345 903.691 413.339C903.617 407.665 901.325 402.242 900.23 396.66C898.676 388.738 899.455 380.205 895.486 373.047C895.091 372.207 894.466 371.477 893.674 370.929C892.681 370.444 891.567 370.212 890.446 370.256C886.861 370.12 883.273 370.09 879.683 370.168C878.678 370.19 877.502 370.307 876.981 371.107C876.448 371.926 876.914 372.97 877.382 373.821C879.603 377.863 883.203 381.093 880.596 385.941Z" fill="#2F2E41"/>
<path id="Vector_30" d="M795.427 243.947C794.424 244.717 793.745 245.789 793.507 246.977C793.27 248.166 793.489 249.394 794.128 250.447C794.923 251.671 796.349 252.811 796.037 254.211C795.712 255.665 793.79 256.159 792.212 256.392C778.311 258.447 764.783 262.23 751.305 266.003L737.167 269.96C733.091 271.101 728.944 272.272 725.421 274.495C722.189 276.542 719.631 279.383 718.032 282.7C716.416 286.069 715.861 289.78 715.284 293.429C713.16 306.859 710.449 320.422 704.003 332.602L738.292 343.053C741.616 344.188 745.06 344.994 748.566 345.457C751.908 345.715 755.273 345.564 758.573 345.007C758.36 337.889 758.23 330.557 758.017 323.44C757.995 321.192 757.838 318.947 757.547 316.715C757.033 313.304 755.894 309.986 755.539 306.558C757.121 305.345 759.42 305.646 761.47 305.702C766.148 305.829 770.714 304.317 774.874 302.325C779.034 300.332 782.902 297.849 787.039 295.816C793.932 292.427 801.77 290.148 807.032 284.799C804.352 294.294 798.02 302.568 796.796 312.318C795.558 322.169 799.871 331.81 804.093 340.918L817.583 370.02C819.072 373.233 821.056 376.845 824.728 377.612C827.016 378.089 829.376 377.291 831.5 376.367C843.916 370.961 853.849 360.799 867.105 357.55C866.117 351.447 860.93 346.402 857.993 340.868C855.515 336.201 854.706 330.945 853.055 325.972C851.404 320.998 848.568 315.959 843.579 313.595C841.211 312.472 838.02 311.496 837.799 309.033C837.784 308.242 837.964 307.458 838.326 306.742C840.103 302.587 842.86 298.856 846.395 295.824C846.85 295.498 847.214 295.074 847.456 294.59C847.587 294.11 847.614 293.611 847.535 293.121C847.284 289.158 849.567 285.452 852.113 282.266C854.659 279.079 857.601 276.047 859.037 272.308C861.505 265.881 859.055 258.817 856.615 252.381C855.629 249.779 854.592 247.097 852.565 245.082C849.388 241.921 844.44 241.011 839.815 240.539C824.86 239.015 807.311 235.371 795.427 243.947Z" fill="#2F2E41"/>
<path id="Vector_31" d="M793.87 245.869C794.373 245.774 794.84 245.555 795.221 245.236C795.602 244.916 795.884 244.507 796.037 244.052C796.076 243.873 796.087 243.691 796.072 243.509C795.856 243.654 795.639 243.795 795.427 243.947C794.74 244.454 794.204 245.116 793.87 245.869Z" fill="black"/>
<path id="Vector_32" d="M819.059 143.212C819.237 146.387 818.206 149.785 815.58 151.822C814.738 152.476 813.76 152.971 812.95 153.659C812.23 154.346 811.679 155.172 811.337 156.077C810.994 156.982 810.868 157.946 810.967 158.902C811.066 159.857 811.388 160.781 811.91 161.609C812.432 162.437 813.141 163.149 813.99 163.697C816.716 165.243 820.183 164.826 823.33 164.318C827.527 163.773 831.641 162.775 835.589 161.345C839.56 159.895 842.94 157.321 845.252 153.988C841.825 152.212 839.959 148.481 839.751 144.84C839.543 141.193 840.618 137.055 838.134 134.226C835.742 131.502 831.239 131.522 827.592 132.457C825.762 132.926 823.99 133.575 822.157 134.035C821.228 134.267 818.16 134.274 817.553 134.909C816.449 136.065 818.956 141.375 819.059 143.212Z" fill="#FBBEBE"/>
<path id="Vector_33" opacity="0.1" d="M819.059 143.212C819.237 146.387 818.206 149.785 815.58 151.822C814.738 152.476 813.76 152.971 812.95 153.659C812.23 154.346 811.679 155.172 811.337 156.077C810.994 156.982 810.868 157.946 810.967 158.902C811.066 159.857 811.388 160.781 811.91 161.609C812.432 162.437 813.141 163.149 813.99 163.697C816.716 165.243 820.183 164.826 823.33 164.318C827.527 163.773 831.641 162.775 835.589 161.345C839.56 159.895 842.94 157.321 845.252 153.988C841.825 152.212 839.959 148.481 839.751 144.84C839.543 141.193 840.618 137.055 838.134 134.226C835.742 131.502 831.239 131.522 827.592 132.457C825.762 132.926 823.99 133.575 822.157 134.035C821.228 134.267 818.16 134.274 817.553 134.909C816.449 136.065 818.956 141.375 819.059 143.212Z" fill="black"/>
<path id="Vector_34" d="M829.571 143.016C840.781 143.016 849.869 134.569 849.869 124.148C849.869 113.727 840.781 105.28 829.571 105.28C818.361 105.28 809.274 113.727 809.274 124.148C809.274 134.569 818.361 143.016 829.571 143.016Z" fill="#FBBEBE"/>
<path id="Vector_35" d="M765.478 268.909C765.113 270.4 764.466 271.818 763.567 273.098C761.2 277.007 760.345 281.551 761.144 285.975C761.572 288.168 762.575 290.23 764.062 291.979C765.55 293.727 767.478 295.108 769.676 296.001C771.576 296.696 773.93 296.879 775.497 295.662C772.785 292.383 772.641 287.906 772.803 283.773C772.756 283.001 772.954 282.234 773.373 281.566C773.484 281.407 773.629 281.271 773.799 281.166C773.969 281.061 774.161 280.99 774.362 280.957C774.563 280.924 774.769 280.929 774.967 280.973C775.166 281.017 775.353 281.098 775.516 281.212C775.447 283.814 775.988 286.4 777.101 288.788C777.531 289.707 778.264 290.722 779.342 290.696C780.887 290.658 781.305 288.712 781.246 287.276C781.007 281.424 780.699 275.329 777.664 270.197C776.553 268.319 775.072 266.555 774.65 264.447C774.63 263.717 774.358 263.011 773.874 262.435C773.54 262.191 773.149 262.021 772.732 261.94C770.985 261.481 766.849 260.052 765.407 261.574C763.861 263.205 765.757 266.959 765.478 268.909Z" fill="#FBBEBE"/>
<path id="Vector_36" d="M795.622 168.658C793.294 168.414 791.456 170.395 790.181 172.221C785.43 179.032 782.01 186.57 780.079 194.486C779.096 198.527 778.478 202.723 776.414 206.395C775.918 207.158 775.517 207.971 775.222 208.819C775.045 210.113 774.983 211.42 775.036 212.724C774.821 215.081 773.323 217.176 772.819 219.495C772.519 220.878 772.58 222.309 772.313 223.697C771.846 226.128 770.409 228.291 769.489 230.608C767.871 234.688 767.885 239.167 766.694 243.373C766.548 244.066 766.226 244.716 765.753 245.27C764.946 246.094 763.655 246.296 762.598 246.824C761.767 247.297 761.054 247.93 760.508 248.68C759.961 249.43 759.593 250.28 759.429 251.173C759.114 252.959 759.078 254.778 759.321 256.574L760.254 267.735C761.216 267.36 761.844 266.348 762.646 265.728C764.113 264.594 766.268 264.848 768.146 265.165L770.882 265.626C773.68 266.097 776.723 266.698 778.518 268.749C779.944 266.675 779.129 263.619 781.321 262.239C782.034 261.791 782.917 261.639 783.669 261.249C784.377 260.823 784.964 260.245 785.38 259.563C785.796 258.881 786.028 258.116 786.058 257.333C786.101 255.767 785.869 254.206 785.371 252.71C788.885 251.331 791.064 248.023 792.439 244.716C793.952 240.713 795.046 236.583 795.707 232.385C798.882 215.799 801.783 199.094 802.071 182.249C802.272 179.432 801.937 176.603 801.083 173.893C800.083 171.234 798.634 168.973 795.622 168.658Z" fill="#D0CDE1"/>
<path id="Vector_37" d="M846.794 150.594C843.444 153.861 839.161 156.173 834.449 157.26C829.761 158.331 824.975 158.987 820.154 159.217C818.671 159.448 817.15 159.326 815.732 158.862C814.369 158.288 813.334 156.788 813.888 155.496C814.157 155.096 814.338 154.652 814.422 154.187C814.398 153.038 812.579 152.942 811.397 153.282C803.584 155.529 796.09 159.977 792.484 166.801C790.447 170.656 789.775 174.991 789.129 179.244C787.431 190.429 785.736 201.857 788.013 212.953C789.227 218.87 791.563 224.637 791.709 230.659C791.79 234.033 791.178 237.395 791.206 240.77C791.098 241.952 791.439 243.133 792.168 244.106C792.731 244.713 793.578 245.096 793.97 245.809C794.626 247.002 793.75 248.639 794.613 249.711C795.676 251.032 797.895 250.084 799.36 249.152C806.725 244.503 815.62 242.421 824.476 243.274C835.114 244.336 845.685 249.606 856.002 246.972C855.471 246.252 855.012 245.488 854.633 244.689C849.488 228.974 849.837 211.408 857.536 196.623C860.166 191.572 863.657 186.758 864.664 181.225C865.071 178.637 865.103 176.01 864.76 173.414C864.218 168.391 862.931 163.327 859.994 159.08C857.058 154.834 852.198 151.092 846.794 150.594Z" fill="#D0CDE1"/>
<path id="Vector_38" d="M797.688 273.765C796.861 275.817 796.465 277.997 796.519 280.187C796.443 282.283 796.555 284.38 796.855 286.458C797.027 288.234 797.708 289.935 798.827 291.384C799.399 292.096 800.186 292.636 801.088 292.934C801.99 293.232 802.966 293.275 803.894 293.058C804.625 292.776 805.278 292.346 805.807 291.799C806.336 291.253 806.727 290.603 806.951 289.898C807.388 288.489 807.709 287.05 807.911 285.596C808.8 281.313 811.22 277.293 811.262 272.931C811.296 272.414 811.207 271.896 811.004 271.414C810.124 269.621 805.812 267.609 803.706 267.911C801.071 268.288 798.644 271.695 797.688 273.765Z" fill="#FBBEBE"/>
<path id="Vector_39" opacity="0.1" d="M856.262 166.524C855.861 170.276 859.765 173.103 861.308 176.59C861.939 178.217 862.299 179.925 862.373 181.654C863.458 193.649 862.616 205.715 861.773 217.727C861.619 221.726 861.086 225.704 860.178 229.616C858 237.825 852.64 244.94 847.388 251.843C845.583 254.61 842.822 256.727 839.556 257.847L821.534 265.963C819.276 266.89 817.13 268.037 815.132 269.385C812.814 271.074 810.991 273.28 809.833 275.799C806.337 274.138 802.706 272.647 799.21 270.986C798.391 270.597 797.476 270.09 797.335 269.246C797.146 268.113 798.419 267.313 799.295 266.507C800.935 264.999 801.441 262.763 802.329 260.784C805.229 254.318 812.524 250.18 815.155 243.615C816.166 241.093 816.475 238.242 818.269 236.127C819.294 235.068 820.448 234.121 821.707 233.306C824.486 231.114 827.038 228.686 829.33 226.052C830.36 225.059 831.203 223.912 831.823 222.659C832.611 220.795 832.375 218.718 832.416 216.717C832.55 210.165 835.737 204.054 837.688 197.757C839.526 191.826 840.292 185.606 842.703 179.855C845.113 174.105 849.835 168.07 856.262 166.524Z" fill="black"/>
<path id="Vector_40" d="M858.604 166.524C858.203 170.276 862.107 173.103 863.65 176.59C864.281 178.217 864.641 179.925 864.715 181.654C865.8 193.649 864.958 205.715 864.115 217.727C863.961 221.726 863.428 225.704 862.52 229.616C860.342 237.825 854.982 244.94 849.73 251.843C847.925 254.61 845.164 256.727 841.898 257.847L823.876 265.963C821.618 266.89 819.472 268.037 817.474 269.385C815.156 271.074 813.333 273.28 812.175 275.799C808.679 274.138 805.048 272.647 801.552 270.986C800.733 270.597 799.818 270.09 799.677 269.246C799.488 268.113 800.761 267.313 801.637 266.507C803.277 264.999 803.783 262.763 804.671 260.784C807.571 254.318 814.866 250.18 817.497 243.615C818.508 241.093 818.818 238.242 820.611 236.127C821.637 235.068 822.79 234.121 824.049 233.306C826.828 231.114 829.38 228.686 831.672 226.052C832.702 225.059 833.545 223.912 834.165 222.659C834.953 220.795 834.717 218.718 834.758 216.717C834.892 210.165 838.079 204.054 840.03 197.757C841.868 191.826 842.634 185.606 845.045 179.855C847.455 174.105 852.177 168.07 858.604 166.524Z" fill="#D0CDE1"/>
<path id="Vector_41" d="M839.637 94.979C833.383 94.2684 827.051 95.487 821.615 98.4474C822.416 98.4753 823.221 98.5261 824.031 98.6171C830.037 99.2913 835.664 101.702 840.118 105.509C844.571 109.315 847.626 114.326 848.852 119.833C850.078 125.341 849.412 131.067 846.949 136.204C844.485 141.341 840.349 145.629 835.123 148.463C842.569 148.716 849.832 146.283 855.394 141.675C860.956 137.066 864.386 130.638 864.969 123.733C865.552 116.828 863.241 109.981 858.521 104.623C853.8 99.2642 847.034 95.8089 839.637 94.979Z" fill="#2F2E41"/>
<path id="Vector_42" d="M848.523 109.906C849.224 111.383 849.605 112.973 849.645 114.587C849.684 116.201 849.38 117.806 848.751 119.31C848.614 118.922 848.456 118.539 848.277 118.165C844.707 110.781 833.709 107.724 823.712 111.338C817.823 113.467 813.597 117.437 811.847 121.849C809.302 114.71 814.471 106.508 823.957 103.078C833.954 99.4641 844.952 102.521 848.523 109.906Z" fill="#2F2E41"/>
<path id="Vector_43" d="M848.578 118.725C848.117 113.542 846.047 108.594 842.621 104.483C839.195 100.371 834.559 97.2716 829.276 95.5602C826.587 96.1759 824.006 97.1483 821.615 98.4475C822.416 98.4753 823.221 98.5261 824.031 98.6171C829.829 99.2689 835.279 101.539 839.662 105.129C844.044 108.719 847.153 113.459 848.578 118.725Z" fill="black"/>
<path id="Vector_44" d="M853.263 99.1306C852.801 93.9475 850.731 89.0002 847.305 84.8886C843.879 80.777 839.243 77.6776 833.96 75.9662C831.271 76.5819 828.69 77.5542 826.299 78.8534C827.1 78.8813 827.905 78.9321 828.715 79.023C834.513 79.6749 839.963 81.9454 844.346 85.535C848.728 89.1247 851.837 93.865 853.263 99.1306Z" fill="black"/>
<path id="Vector_45" d="M853.382 69.8644C853.103 66.7363 851.854 63.7506 849.787 61.2692C847.719 58.7878 844.921 56.9172 841.733 55.8844C840.109 56.256 838.552 56.8428 837.109 57.6268C837.592 57.6437 838.078 57.6743 838.567 57.7292C842.067 58.1226 845.356 59.4929 848.001 61.6593C850.645 63.8257 852.522 66.6865 853.382 69.8644Z" fill="black"/>
<path id="Vector_46" d="M774.339 287.131L770.604 182.158" stroke="#FED546" stroke-width="2" stroke-miterlimit="10"/>
<path id="Vector_47" d="M770.604 197.011C779.428 197.011 786.582 190.361 786.582 182.158C786.582 173.955 779.428 167.305 770.604 167.305C761.779 167.305 754.626 173.955 754.626 182.158C754.626 190.361 761.779 197.011 770.604 197.011Z" fill="#FA4343"/>
<path id="Vector_48" d="M772.906 246.855C772.906 246.855 769.002 201.314 722.424 208.054Z" fill="#FF7715"/>
</g>
</g>
<defs>
<filter id="filter0_f_0_1" x="383.857" y="96.3098" width="52.7919" height="49.638" filterUnits="userSpaceOnUse" color-interpolation-filters="sRGB">
<feFlood flood-opacity="0" result="BackgroundImageFix"/>
<feBlend mode="normal" in="SourceGraphic" in2="BackgroundImageFix" result="shape"/>
<feGaussianBlur stdDeviation="2" result="effect1_foregroundBlur_0_1"/>
</filter>
<filter id="filter1_f_0_1" x="31.6299" y="-4" width="52.7919" height="49.638" filterUnits="userSpaceOnUse" color-interpolation-filters="sRGB">
<feFlood flood-opacity="0" result="BackgroundImageFix"/>
<feBlend mode="normal" in="SourceGraphic" in2="BackgroundImageFix" result="shape"/>
<feGaussianBlur stdDeviation="2" result="effect1_foregroundBlur_0_1"/>
</filter>
<filter id="filter2_d_0_1" x="76.4217" y="400.293" width="402.983" height="191.586" filterUnits="userSpaceOnUse" color-interpolation-filters="sRGB">
<feFlood flood-opacity="0" result="BackgroundImageFix"/>
<feColorMatrix in="SourceAlpha" type="matrix" values="0 0 0 0 0 0 0 0 0 0 0 0 0 0 0 0 0 0 127 0" result="hardAlpha"/>
<feOffset dy="4"/>
<feGaussianBlur stdDeviation="2"/>
<feComposite in2="hardAlpha" operator="out"/>
<feColorMatrix type="matrix" values="0 0 0 0 0 0 0 0 0 0 0 0 0 0 0 0 0 0 0.25 0"/>
<feBlend mode="normal" in2="BackgroundImageFix" result="effect1_dropShadow_0_1"/>
<feBlend mode="normal" in="SourceGraphic" in2="effect1_dropShadow_0_1" result="shape"/>
</filter>
<filter id="filter3_d_0_1" x="569.232" y="226.007" width="381.762" height="274.491" filterUnits="userSpaceOnUse" color-interpolation-filters="sRGB">
<feFlood flood-opacity="0" result="BackgroundImageFix"/>
<feColorMatrix in="SourceAlpha" type="matrix" values="0 0 0 0 0 0 0 0 0 0 0 0 0 0 0 0 0 0 127 0" result="hardAlpha"/>
<feOffset dy="4"/>
<feGaussianBlur stdDeviation="2"/>
<feComposite in2="hardAlpha" operator="out"/>
<feColorMatrix type="matrix" values="0 0 0 0 0 0 0 0 0 0 0 0 0 0 0 0 0 0 0.25 0"/>
<feBlend mode="normal" in2="BackgroundImageFix" result="effect1_dropShadow_0_1"/>
<feBlend mode="normal" in="SourceGraphic" in2="effect1_dropShadow_0_1" result="shape"/>
</filter>
<linearGradient id="paint0_linear_0_1" x1="843.566" y1="141.209" x2="843.566" y2="129.703" gradientUnits="userSpaceOnUse">
<stop stop-color="#808080" stop-opacity="0.25"/>
<stop offset="0.53514" stop-color="#808080" stop-opacity="0.12"/>
<stop offset="1" stop-color="#808080" stop-opacity="0.1"/>
</linearGradient>
<clipPath id="clip0_0_1">
<rect width="947" height="617" fill="white"/>
</clipPath>
</defs>
</svg>
