<svg width="732" height="705" viewBox="0 0 732 705" fill="none" xmlns="http://www.w3.org/2000/svg">
<path d="M715 66.3383V638.661C715 651.746 709.591 664.297 699.965 673.55C690.343 682.803 677.287 688 663.676 688H68.3235C54.7115 688 41.6572 682.803 32.0321 673.55C22.4074 664.297 17 651.746 17 638.661V66.3383C17 53.2528 22.4074 40.7034 32.0321 31.451C41.6572 22.1982 54.7115 17 68.3235 17H663.676C677.287 17 690.343 22.1982 699.965 31.451C709.591 40.7034 715 53.2528 715 66.3383ZM222.294 273.559H119.647V589.323H222.294V431.441V273.559ZM231.532 165.015C231.586 157.551 230.11 150.15 227.189 143.234C224.268 136.318 219.958 130.023 214.505 124.709C209.053 119.394 202.566 115.164 195.413 112.26C188.26 109.355 180.582 107.834 172.818 107.782H170.97C155.181 107.782 140.038 113.812 128.872 124.545C117.708 135.279 111.435 149.836 111.435 165.015C111.435 180.194 117.708 194.751 128.872 205.484C140.038 216.217 155.181 222.247 170.97 222.247C178.735 222.431 186.462 221.142 193.708 218.454C200.955 215.766 207.58 211.732 213.204 206.582C218.828 201.432 223.341 195.267 226.486 188.439C229.631 181.612 231.346 174.256 231.532 166.791V165.015ZM612.352 397.497C612.352 302.571 549.532 265.665 487.124 265.665C466.69 264.681 446.344 268.865 428.115 277.799C409.891 286.732 394.416 300.105 383.245 316.581H380.369V273.559H283.882V589.323H386.529V421.375C385.045 404.177 390.682 387.107 402.213 373.878C413.744 360.649 430.241 352.329 448.117 350.725H452.018C484.66 350.725 508.884 370.459 508.884 420.191V589.323H611.532L612.352 397.497Z" stroke="black" stroke-width="33.3333" stroke-linejoin="round"/>
</svg>
